<?xml version="1.0" encoding="UTF-8"?>
<svg id="Calque_2" data-name="Calque 2" xmlns="http://www.w3.org/2000/svg" viewBox="0 0 107.31 123.3">
  <g id="Calque_1-2" data-name="Calque 1">
    <g>
      <path d="M49.48.8c6.3-.13,1.48,14.38,1.27,18.26-.33,6.14-.69,17.9.48,23.59,2.62,12.72,19.88,15.74,23.32,33.67,8.04,41.93-44.08,63.66-67.58,31.59-17.15-23.4.7-68.93,17.85-88.79C29.09,14.18,43.13.93,49.48.8Z" style="fill: #f39322;"/>
      <path d="M63.78,121.58c15.29-12.31,21.29-29.74,16.56-49.05-3.27-13.35-11.16-16.37-19.1-24.9-5.86-6.3-5.5-22.5-3.41-30.48,1.11-4.22,14-13.58,18.27-15.72,14.65-7.35,5.97,15.59,5.64,23.63-.22,5.32.2,12.26,1.72,17.36,3.84,12.81,19.66,15,23.08,32.92,5.08,26.6-15.66,49.4-42.76,46.25Z" style="fill: #f39322;"/>
    </g>
  </g>
</svg>