<?xml version="1.0" encoding="UTF-8"?>
<svg id="Calque_2" data-name="Calque 2" xmlns="http://www.w3.org/2000/svg" viewBox="0 0 646.89 266.05">
  <g id="page_2" data-name="page 2">
    <g id="Black">
      <g>
        <path d="M205.01,73.73c-5.29-7.27-12.84-12.73-22-13.42-7.44-.56-14.48,1.86-20.82,5.52-5.46,3.15-4.71,2.76-10.17,5.92-5.12,2.95-10.23,5.91-15.35,8.86-4.24,2.45-8.49,4.9-12.73,7.35-.01.04-.02.07-.03.11-2.23,7.54-4.19,14.33-5.89,20.43,8.98-5.18,17.96-10.37,26.94-15.55,8.54-4.93,17.1-9.84,25.62-14.79,1.53-.89,2.99-1.68,4.71-2.19,1.08-.32,2.18-.57,3.29-.73,1.93-.27,3.91-.26,5.82.18,1.73.39,3.38,1.13,4.83,2.16,1.5,1.06,2.78,2.4,3.85,3.88,1.19,1.65,2.13,3.47,2.89,5.35.85,2.12,1.48,4.33,1.95,6.57.52,2.48.84,5,1.02,7.53.2,2.74.22,5.49.12,8.23-.11,2.91-.38,5.81-.77,8.69-.41,2.98-.96,5.95-1.65,8.88-.7,2.98-1.53,5.93-2.5,8.83-.97,2.89-2.08,5.74-3.34,8.51-1.23,2.72-2.61,5.38-4.16,7.95-.67,1.12-1.37,2.21-2.11,3.29-21.8,31.88-43.23,35.49-43.23,35.49,8.97-7.56,17.02-17.82,19.94-29.35,1.97-7.79.96-16.72.96-24.73v-36.35l-14.41,8.29c0,14.14-.29,28.31,0,42.44.19,9.1-5.64,18.4-11.94,24.67-5.44,5.41-12.34,9.22-19.84,10.86-14.76,3.23-30.51-2.17-40.2-13.74-4.26-5.09-7.23-11.17-8.9-17.58,0,0-23.1,19.46-49.83,7.93,0,0,51.97,49.82,89.82,49.82,58.7,0,106.28-47.77,106.28-106.7,0-11.97-.91-22.66-8.16-32.61Z" style="fill: #f7931e;"/>
        <path d="M108.72,143.69c-.62,0-1.19-.36-1.73-1.1-.54-.73-.81-1.63-.81-2.71,0-5.62,4.07-22.09,12.2-49.41,4.99-16.7,7.48-26.17,7.48-28.4,0-1.85-.65-3.31-1.96-4.39-1.31-1.08-3.19-1.62-5.65-1.62-4.46,0-9.86,1.79-16.2,5.37-6.34,3.58-13.36,9.6-21.04,18.07l5.08,3.93c6.77-6.62,11.14-10.54,13.1-11.78,1.96-1.23,3.71-1.85,5.25-1.85,1.39,0,2.08.77,2.08,2.31,0,1.39-.27,2.96-.81,4.73-11.55,37.41-17.32,60.92-17.32,70.54,0,3,.79,5.35,2.37,7.04,1.58,1.69,3.71,2.54,6.41,2.54,3.08,0,7.04-1.39,11.89-4.16,4.85-2.77,12.54-9.12,23.09-19.05l-4.5-4.39c-10.16,9.54-16.47,14.32-18.93,14.32Z" style="fill: #f7931e;"/>
        <path d="M130.67,41.25c2.92,0,5.56-1.29,7.91-3.87,2.35-2.58,3.52-5.56,3.52-8.95,0-2.46-.77-4.48-2.31-6.06-1.54-1.58-3.5-2.37-5.89-2.37-3.08,0-5.73,1.21-7.97,3.64-2.23,2.42-3.35,5.37-3.35,8.83,0,2.62.77,4.73,2.31,6.35,1.54,1.62,3.46,2.42,5.77,2.42Z" style="fill: #f7931e;"/>
        <path d="M106.28,0C47.58,0,0,47.77,0,106.7c0,11.97.91,22.66,8.16,32.61,5.29,7.27,12.84,12.73,22,13.42,7.44.56,14.48-1.86,20.82-5.52,5.46-3.15,10.93-6.31,16.39-9.46,6.42-3.71,12.84-7.41,19.26-11.12,1.42-5.91,3.19-12.64,5.29-20.18-11.68,6.74-23.37,13.49-35.05,20.23-5.48,3.17-10.97,6.33-16.45,9.5-31.95,12.91-33.57-46.54-11.77-78.42,21.8-31.88,43.23-35.49,43.23-35.49-8.97,7.56-17.02,17.82-19.94,29.35-1.97,7.79-.96,16.72-.96,24.73v36.35l14.41-8.29c0-14.14.29-28.31,0-42.44-.19-9.1,5.64-18.4,11.94-24.67,5.44-5.41,12.34-9.22,19.84-10.86,6.94-1.52,14.1-1.11,20.75.94.84-2.85,2.29-5.41,4.38-7.68,3.5-3.8,7.66-5.7,12.48-5.7,3.74,0,6.81,1.24,9.23,3.71,2.41,2.47,3.62,5.64,3.62,9.5,0,5.31-1.84,9.98-5.52,14.02-.75.82-1.52,1.54-2.31,2.2,2.97,4.35,5.14,9.23,6.47,14.34,0,0,23.1-19.46,49.83-7.93,0,0-51.97-49.82-89.82-49.82Z" style="fill: #f7931e;"/>
      </g>
      <g>
        <path d="M268.52,162.63c-6.84-1.46-13.23-3.64-19.16-6.55-5.93-2.91-11.48-6.55-16.65-10.92l13.87-17.03c6.04,5.24,12.7,9.17,19.98,11.79,7.28,2.62,15.18,3.93,23.69,3.93,11.5,0,20.42-2.13,26.75-6.39,6.33-4.26,9.5-10.28,9.5-18.07v-.11c0-5.53-1.44-9.92-4.31-13.16-2.88-3.24-6.59-5.64-11.14-7.21-4.55-1.56-10.43-3-17.63-4.31-.22-.07-.46-.11-.71-.11s-.49-.04-.71-.11l-1.64-.33c-10.63-1.82-19.27-3.88-25.93-6.17-6.66-2.29-12.36-6.48-17.09-12.56-4.73-6.08-7.1-14.72-7.1-25.93v-.11c0-9.83,2.2-18.21,6.61-25.17,4.4-6.95,10.83-12.25,19.27-15.89,8.44-3.64,18.6-5.46,30.46-5.46,5.68,0,11.26.62,16.76,1.86,5.49,1.24,10.92,3.08,16.27,5.51,5.35,2.44,10.61,5.51,15.78,9.23l-12.67,17.69c-6.04-4.44-12.06-7.77-18.07-9.99-6-2.22-12.03-3.33-18.07-3.33-10.85,0-19.27,2.17-25.28,6.5-6,4.33-9.01,10.46-9.01,18.4v.11c0,5.46,1.55,9.75,4.64,12.88,3.09,3.13,6.95,5.44,11.57,6.93,4.62,1.49,11.04,3.04,19.27,4.64.29.07.56.13.82.16.25.04.53.09.82.16.36.07.76.15,1.2.22.44.07.84.15,1.2.22,9.61,1.97,17.63,4.3,24.07,6.99,6.44,2.69,11.83,7.04,16.16,13.05,4.33,6,6.5,14.21,6.5,24.62v.22c0,9.68-2.29,17.96-6.88,24.84-4.59,6.88-11.23,12.12-19.93,15.72-8.7,3.6-19.2,5.4-31.5,5.4-7.64,0-14.89-.73-21.73-2.18Z"/>
        <path d="M389.17,4.43h0c6.15,0,11.14,4.99,11.14,11.14h0c0,6.15-4.99,11.14-11.14,11.14h0c-6.15,0-11.14-4.99-11.14-11.14h0c0-6.15,4.99-11.14,11.14-11.14ZM389.17,49.85h0c6.15,0,11.14,4.99,11.14,11.14v91.06c0,6.15-4.99,11.14-11.14,11.14h0c-6.15,0-11.14-4.99-11.14-11.14V60.99c0-6.15,4.99-11.14,11.14-11.14Z"/>
        <path d="M459.59,157.56c-8.44-4.84-14.98-11.68-19.6-20.53-4.62-8.84-6.93-19.09-6.93-30.73v-44.98c0-11.64,2.31-21.89,6.93-30.73,4.62-8.84,11.15-15.68,19.6-20.53,8.44-4.84,18.2-7.26,29.26-7.26s20.82,2.42,29.26,7.26c8.44,4.84,14.97,11.68,19.6,20.53,4.62,8.84,6.93,19.09,6.93,30.73v44.98c0,11.65-2.31,21.89-6.93,30.73-4.62,8.84-11.16,15.69-19.6,20.53-8.44,4.84-18.2,7.26-29.26,7.26s-20.82-2.42-29.26-7.26ZM506.16,138.45c4.98-2.95,8.84-7.13,11.57-12.56,2.73-5.42,4.09-11.7,4.09-18.83v-46.51c0-7.13-1.36-13.41-4.09-18.83-2.73-5.42-6.59-9.61-11.57-12.56-4.99-2.95-10.75-4.42-17.31-4.42s-12.32,1.47-17.31,4.42c-4.99,2.95-8.84,7.13-11.57,12.56-2.73,5.42-4.09,11.7-4.09,18.83v46.51c0,7.13,1.36,13.41,4.09,18.83,2.73,5.42,6.59,9.61,11.57,12.56,4.98,2.95,10.75,4.42,17.31,4.42s12.32-1.47,17.31-4.42Z"/>
      </g>
      <path d="M615.61,77.65c.86.13,1.95.43,3.27.89,1.32.46,2.87,1.12,4.65,1.98,1.52.73,2.95,1.5,4.31,2.33,1.35.82,2.75,1.6,4.21,2.33,1.25.66,2.32,1.68,3.22,3.07.89,1.39,1.7,3,2.43,4.85.99,2.38,1.68,4.31,2.08,5.79.4,1.49.59,2.56.59,3.22v1.78c0,.66-.03,1.42-.1,2.28,0,1.12-.05,2.01-.15,2.67-.1.66-.15,1.16-.15,1.49-.07,2.64-1.47,6.72-4.21,12.23-2.74,5.51-6.78,12.49-12.12,20.94-.53.73-1.24,1.62-2.13,2.67-.89,1.06-1.93,2.34-3.12,3.86-1.45,2.24-3.32,5.02-5.59,8.32-2.28,3.3-4.96,7.1-8.07,11.39-4.55,5.55-7.97,10-10.25,13.37s-3.41,5.58-3.41,6.63c0,.99,1.25,1.78,3.76,2.38,2.51.59,6.17.92,10.99.99-3.1-.07-3.12-.1-.05-.1h18.46c1.06.26,2.04.43,2.97.5,2.51-.66,5-1.17,7.47-1.53,2.47-.36,4.97-.54,7.47-.54,1.19,0,2.11.28,2.77.84.66.56.99,1.4.99,2.52,0,1.06-.28,2.12-.84,3.18-.56,1.06-1.4,2.05-2.53,2.98-.93.73-1.88,1.47-2.87,2.23-.99.76-2.02,1.57-3.07,2.43-1.06.46-2.36.89-3.91,1.29-1.55.4-3.39.73-5.5.99-1.85.2-3.52.51-5,.94-1.49.43-2.69.91-3.62,1.44-.79.2-1.42.36-1.88.5-1.98.2-3.73.3-5.25.3s-3.86.33-7.03.99c-3.17.66-5.48.99-6.93.99-9.11,0-16.03-.68-20.75-2.03-4.72-1.35-7.31-3.38-7.78-6.09-.13-.4-.31-1.14-.54-2.23-.23-1.09-.58-2.53-1.04-4.31.2-1.72,1.57-4.54,4.11-8.47,2.54-3.93,6.32-8.96,11.34-15.11,8.32-10.17,14.78-18.13,19.37-23.87,4.59-5.75,7.31-9.18,8.17-10.3,4.82-6.54,8.45-12.17,10.9-16.89,2.44-4.72,3.67-8.5,3.67-11.34,0-1.58-.25-2.97-.74-4.16-.5-1.19-1.24-2.15-2.23-2.87-.46-.4-1.29-.87-2.47-1.44-1.19-.56-2.7-1.17-4.55-1.83-3.23-1.25-5.89-2.19-7.96-2.82-2.08-.63-3.58-.94-4.5-.94-6.53,0-11.65,1.14-15.34,3.42s-5.91,5.63-6.63,10.05c-.2.99-.89,2.16-2.08,3.52-1.19,1.35-2.14,2.03-2.87,2.03-1.06,0-2.54-2.15-4.46-6.44-1.92-4.29-2.67-7.07-2.28-8.32l.89-3.27c-.26-.53-.59-1.42-.99-2.67,0-.4.56-2.59,1.68-6.59,1.12-4,3-6.62,5.65-7.88,1.78-.73,3.3-1.42,4.55-2.08,1.25-.66,2.11-1.25,2.57-1.78.4-.07,1.2-.21,2.42-.45,1.22-.23,2.85-.54,4.9-.94,1.45-.26,2.79-.46,4.01-.59,1.22-.13,2.36-.2,3.42-.2.72,0,1.95.07,3.66.2,1.71.13,3.89.33,6.53.59,2.44.26,4.95.5,7.52.69Z"/>
      <g>
        <path d="M236.67,182.16c2.29-.42,5.57-.65,8.7-.65,4.84,0,7.97.79,10.16,2.55,1.77,1.39,2.76,3.53,2.76,5.94,0,4.13-2.92,6.87-6.61,7.98v.14c2.71.84,4.32,3.06,5.16,6.31,1.15,4.36,1.98,7.38,2.71,8.59h-4.69c-.57-.88-1.35-3.57-2.34-7.47-1.04-4.32-2.92-5.94-7.03-6.08h-4.27v13.55h-4.53v-30.87ZM241.2,196.41h4.64c4.84,0,7.92-2.37,7.92-5.94,0-4.04-3.28-5.8-8.07-5.85-2.19,0-3.75.19-4.48.37v11.42Z"/>
        <path d="M282.87,198.36h-13.64v11.28h15.21v3.39h-19.74v-31.29h18.96v3.39h-14.43v9.89h13.64v3.34ZM281.98,174.64l-6.61,5.43h-3.75l4.84-5.43h5.52Z"/>
        <path d="M290.32,213.03v-31.29h4.95l11.25,15.83c2.6,3.67,4.63,6.96,6.3,10.17l.1-.05c-.42-4.18-.52-7.98-.52-12.86v-13.09h4.27v31.29h-4.58l-11.14-15.88c-2.45-3.48-4.79-7.05-6.56-10.44l-.16.05c.26,3.95.36,7.71.36,12.9v13.37h-4.27Z"/>
        <path d="M354.59,197.06c0,10.77-7.34,16.48-16.3,16.48s-15.78-6.41-15.78-15.88c0-9.93,6.93-16.43,16.3-16.43s15.78,6.54,15.78,15.83ZM327.35,197.57c0,6.68,4.06,12.67,11.2,12.67s11.25-5.89,11.25-13c0-6.22-3.65-12.72-11.2-12.72s-11.25,6.17-11.25,13.04Z"/>
        <path d="M368.18,213.03l-11.46-31.29h4.9l5.47,15.41c1.51,4.22,2.81,8.03,3.75,11.7h.1c.99-3.62,2.45-7.57,4.01-11.65l5.94-15.46h4.84l-12.55,31.29h-5Z"/>
        <path d="M392.25,203.19l-3.65,9.84h-4.69l11.93-31.29h5.47l11.98,31.29h-4.84l-3.75-9.84h-12.45ZM403.75,200.03l-3.44-9c-.78-2.04-1.3-3.9-1.82-5.71h-.1c-.52,1.86-1.09,3.76-1.77,5.66l-3.44,9.05h10.57Z"/>
        <path d="M421.1,185.18h-10.68v-3.43h25.99v3.43h-10.73v27.85h-4.58v-27.85Z"/>
        <path d="M444.85,181.74v31.29h-4.53v-31.29h4.53Z"/>
        <path d="M482.76,197.06c0,10.77-7.34,16.48-16.3,16.48s-15.78-6.41-15.78-15.88c0-9.93,6.93-16.43,16.3-16.43s15.78,6.54,15.78,15.83ZM455.53,197.57c0,6.68,4.06,12.67,11.2,12.67s11.25-5.89,11.25-13c0-6.22-3.65-12.72-11.2-12.72s-11.25,6.17-11.25,13.04Z"/>
        <path d="M488.65,213.03v-31.29h4.95l11.25,15.83c2.6,3.67,4.63,6.96,6.3,10.17l.1-.05c-.42-4.18-.52-7.98-.52-12.86v-13.09h4.27v31.29h-4.58l-11.14-15.88c-2.45-3.48-4.79-7.05-6.56-10.44l-.16.05c.26,3.95.36,7.71.36,12.9v13.37h-4.27Z"/>
        <path d="M522.3,208.11c2.03,1.11,5,2.04,8.12,2.04,4.63,0,7.34-2.18,7.34-5.34,0-2.92-1.87-4.6-6.61-6.22-5.73-1.81-9.27-4.46-9.27-8.87,0-4.87,4.53-8.49,11.35-8.49,3.59,0,6.2.74,7.76,1.53l-1.25,3.29c-1.15-.56-3.49-1.49-6.67-1.49-4.79,0-6.61,2.55-6.61,4.69,0,2.92,2.14,4.36,6.98,6.03,5.94,2.04,8.96,4.6,8.96,9.19,0,4.83-4.01,9-12.29,9-3.38,0-7.08-.88-8.96-2l1.15-3.39Z"/>
      </g>
    </g>
  </g>
</svg>