<?xml version="1.0" encoding="UTF-8"?>
<svg id="Calque_2" data-name="Calque 2" xmlns="http://www.w3.org/2000/svg" viewBox="0 0 328.44 451.74">
  <g id="Calque_5" data-name="Calque 5">
    <path d="M72.34,369.92C27.51,362.97-.56,349.34,0,324.29c.72-8.71,4.57-84.86,99.75-80.2,38.37,31.37,81.06,33.96,128.94,0,79.95-7.46,97.72,55.99,99.75,84.16-.16,19.85-30.51,36.3-72.34,41.65-20.81-124.14-174.88-103.83-183.76,0Z" style="fill: #a57f4d;"/>
    <circle cx="164.22" cy="376.3" r="75.45" style="fill: #a57f4d;"/>
    <g>
      <path d="M116.76,336.39l11.37,3.98c1.09-6.79,4.74-16.31,5.89-18.19-7.45,4.06-13.2,8.8-17.26,14.21Z" style="fill: #fff;"/>
      <path d="M102.55,369.92h20.05c-.42-5.63.11-11.31,1.27-17.03l-14.97-4.82c-2.96,5.91-5.08,13.2-6.35,21.85Z" style="fill: #fff;"/>
      <path d="M116.76,415.95l11.37-3.98c1.09,6.79,4.74,16.31,5.89,18.19-7.45-4.06-13.2-8.8-17.26-14.21Z" style="fill: #fff;"/>
      <path d="M102.55,382.42h20.05c-.42,5.63.11,11.31,1.27,17.03l-14.97,4.82c-2.96-5.91-5.08-13.2-6.35-21.85" style="fill: #fff;"/>
      <path d="M157.62,344.57v-27.89c-8.09,4.09-14.68,15.69-17.23,26.17,5.65,1.24,11.29,1.78,17.23,1.71Z" style="fill: #fff;"/>
      <path d="M135.92,369.92h21.7s0-12.21,0-12.21c-7.25-.11-13.84-.36-20.08-1.81-1.11,4.44-1.65,8.88-1.62,14.02Z" style="fill: #fff;"/>
      <path d="M157.62,407.77v27.89c-8.09-4.09-14.68-15.69-17.23-26.17,5.65-1.24,11.29-1.78,17.23-1.71Z" style="fill: #fff;"/>
      <path d="M135.92,382.42h21.7s0,12.21,0,12.21c-7.25.11-13.84.36-20.08,1.81-1.11-4.44-1.65-8.88-1.62-14.02" style="fill: #fff;"/>
      <path d="M211.73,336.39l-11.37,3.98c-1.09-6.79-4.74-16.31-5.89-18.19,7.45,4.06,13.2,8.8,17.26,14.21Z" style="fill: #fff;"/>
      <path d="M225.95,369.92h-20.05c.42-5.63-.11-11.31-1.27-17.03l14.97-4.82c2.96,5.91,5.08,13.2,6.35,21.85Z" style="fill: #fff;"/>
      <path d="M211.73,415.95l-11.37-3.98c-1.09,6.79-4.74,16.31-5.89,18.19,7.45-4.06,13.2-8.8,17.26-14.21Z" style="fill: #fff;"/>
      <path d="M225.95,382.42h-20.05c.42,5.63-.11,11.31-1.27,17.03l14.97,4.82c2.96-5.91,5.08-13.2,6.35-21.85" style="fill: #fff;"/>
      <path d="M170.87,344.57v-27.89c8.09,4.09,14.68,15.69,17.23,26.17-5.65,1.24-11.29,1.78-17.23,1.71Z" style="fill: #fff;"/>
      <path d="M192.57,369.92h-21.7s0-12.21,0-12.21c7.25-.11,13.84-.36,20.08-1.81,1.11,4.44,1.65,8.88,1.62,14.02Z" style="fill: #fff;"/>
      <path d="M170.87,407.77v27.89c8.09-4.09,14.68-15.69,17.23-26.17-5.65-1.24-11.29-1.78-17.23-1.71Z" style="fill: #fff;"/>
      <path d="M192.57,382.42h-21.7s0,12.21,0,12.21c7.25.11,13.84.36,20.08,1.81,1.11-4.44,1.65-8.88,1.62-14.02" style="fill: #fff;"/>
    </g>
    <path d="M88.08,172.93l-5.08-73.61c15.74-96.45,148.99-93.15,162.44,0l-6.6,73.61c-34.77,95.18-115.48,88.58-150.76,0Z" style="fill: #a57f4d;"/>
    <path d="M259.79,172.15l-8.2-9.37c-10.28,9.69-25.91,15.44-47.33,16.83-1.27-2.24-3.38-4.03-6.43-4.76h-27.05c-9.11,4.7-8.97,16.32,0,21.02h27.05c2.96-.44,5.15-2.29,6.46-4.72,22.34-1.72,40.84-8.04,55.5-19.01Z" style="fill: #a57f4d; stroke: #fff; stroke-miterlimit: 10; stroke-width: 3px;"/>
    <path d="M80.72,164.05c-8.12,15.48-28.17,15.74-36.29,0v-46.7c4.57-19.29,33.76-17.01,36.29,0v46.7Z" style="fill: #a57f4d;"/>
    <path d="M284.4,164.05c-8.12,15.48-28.17,15.74-36.29,0v-46.7c4.57-19.29,33.76-17.01,36.29,0v46.7Z" style="fill: #a57f4d;"/>
    <path d="M163.84,0c-29.16,0-56.66,12.63-77.43,35.57-19.17,21.18-30.65,49.01-32.66,78.91,5.52-2.53,11.11-4.69,16.69-6.32,6.78-51.87,46.52-92.18,93.4-92.18,52.06,0,94.42,48.44,94.42,107.98,0,1.21-.03,2.43-.06,3.65,5.29,1.43,10.55,2.93,15.8,4.5.16-2.73.25-5.46.25-8.15C274.25,55.61,224.72,0,163.84,0Z" style="fill: #a57f4d;"/>
  </g>
</svg>