<?xml version="1.0" encoding="UTF-8"?>
<svg id="Calque_3" data-name="Calque 3" xmlns="http://www.w3.org/2000/svg" viewBox="0 0 244.46 246.4">
  <path d="M123.2,246.4c-26.69,0-51.4-8.49-71.58-22.91C20.37,201.14,0,164.55,0,123.2,0,55.16,55.16,0,123.2,0c16.2,0,25.91,1.49,21.97,10.2-8.79,19.46-6.79,32.07,9.98,39.94,1.64.77,2.66,2.43,2.57,4.24-2.42,49.75,36.17,27.52,41.37,34.6,7.16,9.75,13.71,14.25,19.4,15.72,5.83,1.53,10.74-.12,14.48-2.52,4.23-2.72,8.63-1.94,9.81,5.13,13.31,79.46-55.03,139.09-119.58,139.09Z" style="fill: #f7931e;"/>
  <circle cx="181.92" cy="62.7" r="19.06" style="fill: #714219;"/>
  <circle cx="179.2" cy="19.09" r="4.56" style="fill: #714219;"/>
  <circle cx="215.87" cy="70.53" r="7.83" style="fill: #714219;"/>
  <circle cx="146.11" cy="172.59" r="19.06" style="fill: #714219;"/>
  <circle cx="153.48" cy="106.52" r="14.83" style="fill: #714219;"/>
  <circle cx="93.87" cy="62.7" r="14.83" style="fill: #714219;"/>
  <circle cx="47.65" cy="135.76" r="14.83" style="fill: #714219;"/>
  <circle cx="108.7" cy="221.51" r="11.69" style="fill: #714219;"/>
  <circle cx="189.58" cy="192.13" r="11.18" style="fill: #714219;"/>
  <circle cx="50.98" cy="81.76" r="7.83" style="fill: #714219;"/>
  <circle cx="74.94" cy="184.33" r="6.69" style="fill: #714219;"/>
  <circle cx="197.39" cy="150.59" r="5.59" style="fill: #714219;"/>
  <path d="M196.09,33.82c-1.18-2-.73-4.58,1.05-6.07,1.78-1.49,3.96-2.7,6.51-2.88,3.69-.27,5.09,1.83,9.78,3.56,9.62,3.53,14.09-1.52,19.11,2.22,3.99,2.97,5.36,9.27,4,14.22-1.55,5.68-6.57,9.17-10.22,10.22-8.76,2.52-21.05-5.72-30.23-21.27Z" style="fill: #f7931e;"/>
  <path d="M167.91,25.98c2.98.51,4.6.16,5.33,1.33.65,1.04.2,2.66-.5,3.67-.38.54-1.4,1.73-8.67,2.5-4.77.5-5.37.1-5.67-.17-2.18-1.96-2.79-8.95,2-9.33,1.89-.15,2.58,1.15,7.5,2Z" style="fill: #f7931e;"/>
  <path d="M215.55,91.4c-.43,2-1.06,2.92-.51,3.67.49.67,1.61.8,2.42.61.43-.1,1.44-.44,3.76-4.79,1.52-2.86,1.42-3.34,1.33-3.59-.68-1.86-4.9-4.01-6.35-1.11-.57,1.15.07,1.9-.64,5.2Z" style="fill: #f7931e;"/>
  <path d="M123.2,246.4c-26.69,0-51.4-8.49-71.58-22.91,62.6,3.69,155.24-77.68,166.87-118.79,5.83,1.53,10.74-.12,14.48-2.52,4.23-2.72,8.63-1.94,9.81,5.13,13.31,79.46-55.03,139.09-119.58,139.09Z" style="opacity: .08;"/>
  <circle cx="100.56" cy="123.2" r="19.06" style="fill: #714219;"/>
  <circle cx="112.11" cy="19.09" r="5.59" style="fill: #714219;"/>
</svg>