<?xml version="1.0" encoding="UTF-8"?>
<svg id="Calque_2" data-name="Calque 2" xmlns="http://www.w3.org/2000/svg" viewBox="0 0 369.98 406.63">
  <g id="Calque_7" data-name="Calque 7">
    <g id="Stars">
      <polygon points="88.81 112.84 108.24 98.49 84.42 98.6 76.92 75.62 69.41 98.6 45.88 98.49 65.41 112.91 57.86 135.77 77.12 122.01 77.12 122.01 77.12 122.01 96.38 135.77 88.81 112.84" style="fill: #a57f4d;"/>
      <polygon points="142.42 57.89 161.84 43.54 138.03 43.65 130.52 20.67 123.01 43.65 99.49 43.54 119.01 57.96 111.46 80.82 130.72 67.06 130.72 67.06 130.72 67.06 149.99 80.82 142.42 57.89" style="fill: #a57f4d;"/>
      <polygon points="219.53 37.22 238.96 22.88 215.14 22.98 207.63 0 200.12 22.98 176.6 22.88 196.12 37.29 188.57 60.15 207.84 46.39 207.84 46.39 207.84 46.39 227.1 60.15 219.53 37.22" style="fill: #a57f4d;"/>
      <polygon points="327.05 112.84 307.62 98.49 331.44 98.6 338.95 75.62 346.46 98.6 369.98 98.49 350.46 112.91 358 135.77 338.74 122.01 338.74 122.01 338.74 122.01 319.48 135.77 327.05 112.84" style="fill: #a57f4d;"/>
      <polygon points="273.45 57.89 254.02 43.54 277.83 43.65 285.34 20.67 292.85 43.65 316.38 43.54 296.85 57.96 304.4 80.82 285.14 67.06 285.14 67.06 285.14 67.06 265.87 80.82 273.45 57.89" style="fill: #a57f4d;"/>
    </g>
    <polygon points="0 340.66 65.52 406.63 93.44 378.71 27.81 313.08 0 340.66" style="fill: #a57f4d;"/>
    <path d="M36.33,316.41l55.83,55.22,9.57-7.06c1.41-.77,2.92-1.37,4.49-1.7,4.7-1,9.47-.93,14.33.43,25.21,6.3,50.77,6.14,76.67,0,69.25-21.14,110.74-52.91,124.44-95.33,2.74-10.2-2-19.11-21.33-12.67-22.89,12.44-52.83,33.86-76.38,35.16-36.19,1.99-66.42-14.55-88.06-16.71-28.32-6.26-52.78-4.62-70.44,10.89-11.84,10.39-21.74,20.96-29.11,31.78Z" style="fill: #a57f4d;"/>
    <ellipse cx="207.67" cy="176.74" rx="93.78" ry="94.78" style="fill: none; stroke: #a57f4d; stroke-miterlimit: 10; stroke-width: 8px;"/>
    <path d="M249.95,283.23c31.39,17.62-24.11,62.24-92.28,44.24,14.16.39,29.83,6.17,66.67-5,28.59-8.67,41.5-33.33,20.14-36.98l5.48-2.26Z" style="fill: #fff;"/>
    <g>
      <circle cx="265.72" cy="173.39" r="6.18" style="fill: #a57f4d;"/>
      <circle cx="149.83" cy="173.45" r="6.18" style="fill: #a57f4d;"/>
      <path d="M206.74,182.4c-2.24,0-4.6-.15-7.12-.49-3.38-.46-5.33-1.03-7.4-1.64-.96-.28-2.01-.59-3.37-.93-10.58-2.62-23.34-2.59-37.91.08l-2.21-12.07c16.29-2.98,30.78-2.96,43.06.08,1.57.39,2.79.75,3.9,1.07,1.88.55,3.12.92,5.57,1.25,7.91,1.07,13.81-.32,20.64-1.94,3.44-.81,7-1.66,11.05-2.25,10.6-1.55,22.09-.93,34.14,1.84l-2.75,11.96c-10.57-2.43-20.53-2.98-29.62-1.66-3.52.51-6.81,1.29-10,2.05-5.52,1.31-11.19,2.65-17.98,2.65Z" style="fill: #a57f4d;"/>
      <circle cx="265.54" cy="150.89" r="6.18" style="fill: #a57f4d;"/>
      <path d="M206.74,160.08c-2.24,0-4.6-.15-7.12-.49-3.37-.46-5.33-1.03-7.39-1.64-.96-.28-2.01-.6-3.38-.93-10.58-2.62-23.34-2.59-37.91.08l-2.21-12.07c16.29-2.98,30.78-2.96,43.06.08,1.57.39,2.79.75,3.9,1.07,1.88.55,3.12.92,5.57,1.25,7.91,1.07,13.81-.32,20.64-1.94,3.44-.81,7-1.66,11.05-2.25,10.59-1.55,22.08-.93,34.14,1.84l-2.75,11.96c-10.57-2.43-20.54-2.99-29.62-1.66-3.52.51-6.81,1.29-10,2.05-5.52,1.31-11.19,2.65-17.98,2.65Z" style="fill: #a57f4d;"/>
      <circle cx="149.61" cy="151.1" r="6.18" style="fill: #a57f4d;"/>
    </g>
    <g>
      <circle cx="265.72" cy="218" r="6.18" style="fill: #a57f4d;"/>
      <circle cx="149.83" cy="218.06" r="6.18" style="fill: #a57f4d;"/>
      <path d="M206.74,227.01c-2.24,0-4.6-.15-7.12-.49-3.38-.46-5.33-1.03-7.4-1.64-.96-.28-2.01-.59-3.37-.93-10.58-2.62-23.34-2.59-37.91.08l-2.21-12.07c16.29-2.98,30.78-2.96,43.06.08,1.57.39,2.79.75,3.9,1.07,1.88.55,3.12.92,5.57,1.25,7.91,1.07,13.81-.32,20.64-1.94,3.44-.81,7-1.66,11.05-2.25,10.6-1.55,22.09-.93,34.14,1.84l-2.75,11.96c-10.57-2.43-20.53-2.98-29.62-1.66-3.52.51-6.81,1.29-10,2.05-5.52,1.31-11.19,2.65-17.98,2.65Z" style="fill: #a57f4d;"/>
      <circle cx="265.54" cy="195.5" r="6.18" style="fill: #a57f4d;"/>
      <path d="M206.74,204.69c-2.24,0-4.6-.15-7.12-.49-3.37-.46-5.33-1.03-7.39-1.64-.96-.28-2.01-.6-3.38-.93-10.58-2.62-23.34-2.59-37.91.08l-2.21-12.07c16.29-2.98,30.78-2.96,43.06.08,1.57.39,2.79.75,3.9,1.07,1.88.55,3.12.92,5.57,1.25,7.91,1.07,13.81-.32,20.64-1.94,3.44-.81,7-1.66,11.05-2.25,10.59-1.55,22.08-.93,34.14,1.84l-2.75,11.96c-10.57-2.43-20.54-2.99-29.62-1.66-3.52.51-6.81,1.29-10,2.05-5.52,1.31-11.19,2.65-17.98,2.65Z" style="fill: #a57f4d;"/>
      <circle cx="149.61" cy="195.71" r="6.18" style="fill: #a57f4d;"/>
    </g>
    <g>
      <circle cx="229.04" cy="126.75" r="5.83" style="fill: #a57f4d;"/>
      <circle cx="149.3" cy="128.38" r="5.87" style="fill: #a57f4d;"/>
      <path d="M200.95,136.77c-1.41,0-2.88-.09-4.42-.3-3.2-.43-5.06-.98-7.02-1.56-.91-.27-1.91-.56-3.2-.88-10.04-2.48-22.14-2.46-35.97.07l-2.1-11.45c15.45-2.83,29.2-2.81,40.86.07,1.49.37,2.65.71,3.7,1.02,1.78.53,2.96.87,5.28,1.19,5.05.68,9.35-.6,13.91-1.96,5.2-1.55,11.1-3.31,18.09-1.97l-2.19,11.44c-4.21-.8-8.09.35-12.58,1.69-4.2,1.25-8.86,2.64-14.38,2.64Z" style="fill: #a57f4d;"/>
    </g>
  </g>
</svg>