<?xml version="1.0" encoding="UTF-8"?>
<svg id="Calque_2" data-name="Calque 2" xmlns="http://www.w3.org/2000/svg" viewBox="0 0 477.08 400.78">
  <g id="Calque_2-2" data-name="Calque 2">
    <path d="M246.53,93.74c7.74-24.44,19.67-49.01,33.6-70.53,3.65-5.65,7.5-13.28,13.85-15.9,4.14-1.71,15.74-3.76,19.36-1.07,3.98,2.96-.91,6.23-2.53,8.57-14.81,21.4-29.27,46.6-39.87,70.38-4.2,9.43-7.4,20.83-11.72,29.69-3.2,6.57-16.74,6.44-22.03,2.52-5.17-7.64-10-15.52-15.74-22.76-4.13-5.21-10.79-11.02-14.24-16.1-5.54-8.15,9.62-12.39,15.73-11.64,5.23.65,12.53,10.36,15.68,14.64,2.89,3.93,5.08,8.25,7.92,12.2Z" style="fill: #a57f4d;"/>
    <path d="M318.52,54.07c-1-2.66-4-3.96-6.62-2.86-2.47,1.04-3.7,3.84-2.75,6.34,3.53,9.31,5.21,19.49,4.6,30.18-2.02,35.39-29.43,64.59-64.64,68.67-12.49,1.45-24.99-.19-35.82-4.35-.18-.07-.35-.14-.53-.21-.5-.2-1.01-.4-1.5-.61-30.37-12.79-50.75-45.48-43.66-82.57,5.21-27.27,25.95-49.2,52.83-56.16,14.35-3.71,28.25-3.14,40.83.76,2.26.7,4.81-.18,5.97-2.25,1.6-2.87.11-6.33-2.88-7.26-10.81-3.36-22.5-4.59-34.56-3.17-41.7,4.93-73.54,40.66-73.6,82.66-.05,33.53,19.5,62.02,47.34,75.46,0,0,0,0,0,0,.7.34,1.4.66,2.11.98.02,0,.03.02.05.02.88.39,1.76.77,2.66,1.13.51.21,1.02.4,1.54.6.27.1.54.21.81.31.3.11.6.23.9.34.19.07.39.12.59.18,9.95,3.44,20.9,5.04,32,4.55,41.92-1.85,76.27-35.09,79.47-76.93.97-12.67-.94-24.8-5.1-35.82Z" style="fill: #a57f4d;"/>
    <g>
      <line x1="95.62" y1="234.69" x2="6.08" y2="194.13" style="fill: #1d1d1b; stroke: #a57f4d; stroke-linecap: round; stroke-miterlimit: 10; stroke-width: 10px;"/>
      <line x1="76.78" y1="281.1" x2="6.08" y2="248.2" style="fill: #1d1d1b; stroke: #a57f4d; stroke-linecap: round; stroke-miterlimit: 10; stroke-width: 10px;"/>
      <polygon points="366.01 201.86 323.87 221.19 367.29 319.49 409.89 299.23 417.08 315.19 366.01 201.86" style="fill: none; stroke: #a57f4d; stroke-miterlimit: 10; stroke-width: 10px;"/>
      <path d="M366.01,201.86l43.07,99.33-43.07-99.33Z" style="fill: none; stroke: #a57f4d; stroke-miterlimit: 10; stroke-width: 10px;"/>
      <polygon points="417.08 315.19 472.08 291.19 472.08 154.19 366.01 201.86 417.08 315.19" style="fill: #a57f4d; stroke: #a57f4d; stroke-linecap: round; stroke-miterlimit: 10; stroke-width: 10px;"/>
      <polygon points="5.03 288.8 62.59 314.49 69.38 298.05 107.08 315.19 150.08 221.19 6.08 154.19 5.03 288.8" style="fill: #a57f4d; stroke: #a57f4d; stroke-linecap: round; stroke-miterlimit: 10; stroke-width: 10px;"/>
      <line x1="110.64" y1="202.84" x2="68.08" y2="301.19" style="fill: none; stroke: #a57f4d; stroke-miterlimit: 10; stroke-width: 10px;"/>
      <path d="M323.87,221.19c-17.7,9.63-40.1,4.88-65.51-7.75-4.14-2.06-8.95-2.34-13.29-.75-38.34,14.12-75.4,34.86-79.43,53.51-.29,1.34.2,2.78,1.31,3.58,11.23,8.04,57.54-15.61,57.54-15.61,6.25-1.4,12.8-.05,18.02,3.66,32.2,22.88,60.57,51.27,76.93,78.54l47.84-24.9" style="fill: none; stroke: #a57f4d; stroke-miterlimit: 10; stroke-width: 10px;"/>
      <path d="M258.53,316.03l41,43.17c17.38.94,24-6.69,19.92-22.83" style="fill: none; stroke: #a57f4d; stroke-linecap: round; stroke-miterlimit: 10; stroke-width: 10px;"/>
      <path d="M241.53,340.36l34.17,37.67c13.85.31,21.43-6.37,23.83-18.83" style="fill: none; stroke: #a57f4d; stroke-linecap: round; stroke-miterlimit: 10; stroke-width: 10px;"/>
      <path d="M230.36,366.53l23.33,23.67c10.13.56,16.96-4.32,22-12.17" style="fill: none; stroke: #a57f4d; stroke-linecap: round; stroke-miterlimit: 10; stroke-width: 10px;"/>
      <path d="M110.64,307.41l9.05,4.78c14.83-11,31.17-9.5,28.14,14.26-.09.7.58,1.21,1.14.76,21.88-17.83,41.78-1.82,22.73,19.98,23.77-22.97,41.5-10.53,24.87,15.34-.31.49-.56,2.51-.11,2.14,17.04-13.79,27.41-.93,18.91,23.18,10.53,10.15,23.5,10.1,38.33,2.33" style="fill: none; stroke: #a57f4d; stroke-miterlimit: 10; stroke-width: 10px;"/>
      <path d="M119.7,312.19c-4.67,24.17,7.83,32.67,25.41,17.47.82-.71,2.21.35,1.66,1.28-15.41,26.25,2.09,41.75,24.93,16.25-20.17,28.83,4.16,43.54,24.44,16.21.52-.7-.65,2.06-1.2,2.74-16.9,20.94-.07,32.77,20.43,21.71" style="fill: none; stroke: #a57f4d; stroke-miterlimit: 10; stroke-width: 10px;"/>
      <path d="M150.08,221.19c31.4,13.5,72.06-24.32,80.28-2.72" style="fill: none; stroke: #a57f4d; stroke-linecap: round; stroke-miterlimit: 10; stroke-width: 10px;"/>
      <circle cx="377.66" cy="296.91" r="8.7" style="fill: #a57f4d;"/>
    </g>
  </g>
</svg>