<?xml version="1.0" encoding="UTF-8"?>
<svg id="Calque_2" data-name="Calque 2" xmlns="http://www.w3.org/2000/svg" viewBox="0 0 254.15 224.17">
  <g id="Calque_2-2" data-name="Calque 2">
    <g>
      <path d="M99.24,221.67c-20.96,0-40.36-6.67-56.21-17.99,49.15,2.9,121.9-61,131.03-93.28,4.58,1.2,8.43-.09,11.37-1.98,3.32-2.14,6.78-1.52,7.7,4.03,10.45,62.39-43.21,109.22-93.9,109.22Z" style="opacity: .08;"/>
      <path d="M99.24,221.67c-20.96,0-40.36-6.67-56.21-17.99C18.49,186.13,2.5,157.4,2.5,124.93,2.5,71.5,45.81,28.19,99.24,28.19c12.72,0,20.35,1.17,17.25,8.01-6.9,15.28-5.33,25.18,7.84,31.36,1.29.6,2.09,1.91,2.02,3.33-1.9,39.06,28.4,21.61,32.48,27.17,5.62,7.66,10.77,11.19,15.23,12.34,4.58,1.2,8.43-.09,11.37-1.98,3.32-2.14,6.78-1.52,7.7,4.03,10.45,62.39-43.21,109.22-93.9,109.22Z" style="fill: none; stroke: #fff; stroke-miterlimit: 10; stroke-width: 5px;"/>
      <path d="M132.19,163.71c0,8.26-6.7,14.96-14.97,14.96-1.52,0-2.99-.23-4.37-.65-6.13-1.87-10.59-7.57-10.59-14.31,0-8.26,6.7-14.96,14.96-14.96s14.72,6.46,14.96,14.51c.01.15.01.3.01.45Z" style="fill: #fff;"/>
      <circle cx="123.01" cy="111.83" r="11.65" style="fill: #fff;"/>
      <circle cx="76.21" cy="77.42" r="11.65" style="fill: #fff;"/>
      <circle cx="39.91" cy="134.79" r="11.65" style="fill: #fff;"/>
      <path d="M97.04,202.12c0,5.07-4.12,9.18-9.19,9.18s-9.18-4.11-9.18-9.18c0-2.6,1.08-4.96,2.83-6.62,1.48-1.43,3.44-2.36,5.61-2.53.24-.02.49-.03.74-.03,5.07,0,9.19,4.11,9.19,9.18Z" style="fill: #fff;"/>
      <circle cx="81.62" cy="124.93" r="15.02" style="fill: #fff;"/>
      <circle cx="151.36" cy="179.06" r="8.78" style="fill: #fff;"/>
      <circle cx="42.53" cy="92.39" r="6.15" style="fill: #fff;"/>
      <circle cx="61.35" cy="172.93" r="5.25" style="fill: #fff;"/>
      <circle cx="157.49" cy="146.44" r="4.39" style="fill: #fff;"/>
      <circle cx="90.53" cy="43.18" r="4.39" style="fill: #fff;"/>
    </g>
    <g>
      <g>
        <g>
          <circle cx="221.66" cy="75.31" r="4.54" style="fill: #fff;"/>
          <circle cx="136.66" cy="75.36" r="4.54" style="fill: #fff;"/>
          <path d="M178.4,81.92c-1.64,0-3.38-.11-5.23-.36-2.48-.33-3.91-.76-5.43-1.2-.71-.21-1.48-.44-2.48-.68-7.76-1.92-17.12-1.9-27.81.06l-1.62-8.85c11.95-2.19,22.58-2.17,31.59.06,1.15.29,2.04.55,2.86.79,1.38.41,2.29.67,4.09.92,5.8.79,10.13-.24,15.14-1.42,2.53-.6,5.14-1.21,8.11-1.65,7.78-1.13,16.2-.68,25.04,1.35l-2.01,8.77c-7.75-1.78-15.06-2.19-21.73-1.22-2.58.38-5,.95-7.33,1.5-4.05.96-8.21,1.94-13.19,1.94Z" style="fill: #fff;"/>
        </g>
        <g>
          <circle cx="221.53" cy="58.81" r="4.54" style="fill: #fff;"/>
          <path d="M178.4,65.55c-1.64,0-3.38-.11-5.23-.36-2.48-.33-3.91-.76-5.42-1.2-.71-.21-1.48-.44-2.48-.68-7.76-1.92-17.12-1.9-27.81.06l-1.62-8.85c11.95-2.19,22.58-2.17,31.59.06,1.16.29,2.05.55,2.86.79,1.38.41,2.29.67,4.08.92,5.8.79,10.13-.24,15.14-1.42,2.53-.6,5.14-1.21,8.11-1.65,7.77-1.14,16.2-.68,25.04,1.35l-2.01,8.77c-7.75-1.78-15.07-2.19-21.73-1.22-2.58.38-5,.95-7.33,1.5-4.05.96-8.21,1.94-13.19,1.94Z" style="fill: #fff;"/>
          <circle cx="136.5" cy="58.96" r="4.54" style="fill: #fff;"/>
        </g>
        <g>
          <circle cx="198.3" cy="39.57" r="4.5" style="fill: #fff;"/>
          <circle cx="136.66" cy="40.83" r="4.54" style="fill: #fff;"/>
          <path d="M176.59,47.32c-1.09,0-2.23-.07-3.42-.23-2.48-.33-3.91-.76-5.43-1.2-.71-.21-1.48-.44-2.48-.68-7.76-1.92-17.12-1.9-27.81.06l-1.62-8.85c11.95-2.19,22.58-2.17,31.59.06,1.16.29,2.04.55,2.86.79,1.38.41,2.29.68,4.08.92,3.91.53,7.23-.47,10.75-1.52,4.02-1.2,8.58-2.56,13.99-1.52l-1.69,8.84c-3.25-.62-6.25.27-9.73,1.31-3.25.97-6.85,2.04-11.11,2.04Z" style="fill: #fff;"/>
        </g>
      </g>
      <path d="M223.93,39.28c3.42-10.81,8.7-21.68,14.86-31.19,1.62-2.5,3.32-5.87,6.12-7.03,1.83-.76,6.96-1.66,8.56-.47,1.76,1.31-.4,2.75-1.12,3.79-6.55,9.47-12.95,20.61-17.63,31.13-1.86,4.17-3.28,9.21-5.18,13.13-1.42,2.91-7.4,2.85-9.75,1.11-2.29-3.38-4.42-6.86-6.96-10.07-1.83-2.3-4.77-4.87-6.3-7.12-2.45-3.61,4.25-5.48,6.96-5.15,2.31.29,5.54,4.58,6.94,6.48,1.28,1.74,2.25,3.65,3.5,5.4Z" style="fill: #fff;"/>
    </g>
    <path d="M97.04,202.12c0,5.07-4.12,9.18-9.19,9.18s-9.18-4.11-9.18-9.18c0-2.6,1.08-4.96,2.83-6.62,1.87-.79,3.74-1.63,5.61-2.53.24-.02.49-.03.74-.03,5.07,0,9.19,4.11,9.19,9.18Z" style="opacity: .08;"/>
    <path d="M132.19,163.71c0,8.26-6.7,14.96-14.97,14.96-1.52,0-2.99-.23-4.37-.65,6.72-4.6,13.22-9.59,19.33-14.76.01.15.01.3.01.45Z" style="opacity: .08;"/>
  </g>
</svg>