<?xml version="1.0" encoding="UTF-8"?>
<svg id="Calque_2" data-name="Calque 2" xmlns="http://www.w3.org/2000/svg" viewBox="0 0 341 373.88">
  <g id="Calque_9" data-name="Calque 9">
    <g>
      <line x1="170.5" y1="188.68" x2="170.5" y2="212.98" style="fill: none; stroke: #a57f4d; stroke-linecap: round; stroke-linejoin: round; stroke-width: 13px;"/>
      <polyline points="36.87 212.98 36.87 200.83 304.13 200.83 304.13 212.98" style="fill: none; stroke: #a57f4d; stroke-linecap: round; stroke-linejoin: round; stroke-width: 13px;"/>
    </g>
    <g>
      <path d="M32,306.64h9.74c14.07,0,25.5,11.43,25.5,25.5v35.24H6.5v-35.24c0-14.07,11.43-25.5,25.5-25.5Z" style="fill: none; stroke: #a57f4d; stroke-linecap: round; stroke-linejoin: round; stroke-width: 13px;"/>
      <path d="M67.18,260.82c1.16,18.33-13.95,33.44-32.28,32.28-15.11-.96-27.38-13.22-28.33-28.34-1.16-18.33,13.95-33.44,32.28-32.28,15.12.95,27.38,13.22,28.34,28.33Z" style="fill: none; stroke: #a57f4d; stroke-linecap: round; stroke-linejoin: round; stroke-width: 13px;"/>
    </g>
    <g>
      <path d="M165.63,306.64h9.74c14.07,0,25.5,11.43,25.5,25.5v35.24h-60.74v-35.24c0-14.07,11.43-25.5,25.5-25.5Z" style="fill: none; stroke: #a57f4d; stroke-linecap: round; stroke-linejoin: round; stroke-width: 13px;"/>
      <path d="M200.81,260.82c1.16,18.33-13.95,33.44-32.28,32.28-15.11-.96-27.38-13.22-28.33-28.34-1.16-18.33,13.95-33.44,32.28-32.28,15.12.95,27.38,13.22,28.34,28.33Z" style="fill: none; stroke: #a57f4d; stroke-linecap: round; stroke-linejoin: round; stroke-width: 13px;"/>
    </g>
    <g>
      <path d="M299.26,306.64h9.74c14.07,0,25.5,11.43,25.5,25.5v35.24h-60.74v-35.24c0-14.07,11.43-25.5,25.5-25.5Z" style="fill: none; stroke: #a57f4d; stroke-linecap: round; stroke-linejoin: round; stroke-width: 13px;"/>
      <path d="M334.44,260.82c1.16,18.33-13.95,33.44-32.28,32.28-15.11-.96-27.38-13.22-28.33-28.34-1.16-18.33,13.95-33.44,32.28-32.28,15.12.95,27.38,13.22,28.34,28.33Z" style="fill: none; stroke: #a57f4d; stroke-linecap: round; stroke-linejoin: round; stroke-width: 13px;"/>
    </g>
    <path d="M228.28,34.2l-1.32-5.81c-.34-1.52-1.66-2.57-3.21-2.57-.12,0-.25,0-.37.02l-5.56.6-.82-1.55c-1.29-2.45-2.87-4.71-4.69-6.72l-1.16-1.28,2.37-4.95c.73-1.55.22-3.32-1.21-4.22l-5.05-3.17c-.54-.34-1.14-.52-1.77-.52-1,0-1.94.46-2.58,1.25l-3.36,4.16-1.68-.53c-2.77-.88-5.63-1.38-8.51-1.49l-1.75-.07-1.81-5.15c-.46-1.32-1.71-2.2-3.1-2.2-.25,0-.5.03-.74.09l-5.84,1.33c-1.62.36-2.71,1.9-2.52,3.57l.59,5.41-1.54.82c-2.62,1.39-5.05,3.14-7.21,5.19l-1.29,1.22-5.01-2.41c-.46-.22-.95-.33-1.45-.33-1.13,0-2.16.58-2.77,1.54l-3.18,5.07c-.91,1.45-.6,3.27.73,4.34l4.55,3.64-.47,1.65c-.78,2.73-1.2,5.47-1.25,8.13l-.04,1.96,1.92.78c4.01,1.66,6.15,6.04,4.99,10.19l-1.62,5.84.22.33c.17.25.35.51.55.8l.06.08.08.07c2.16,1.88,4.17,3.92,5.97,6.06l.37.44,6.32-1.84c.78-.23,1.58-.34,2.38-.34,3.44,0,6.53,2.05,7.86,5.21l1.58,3.74.79-2.01c.74-1.9,2.15-3.47,3.95-4.42l8.59-4.51c1.21-.63,2.56-.96,3.91-.96,2.48,0,4.82,1.07,6.42,2.93l3.86,4.36,8.23-1.42,2.47-7.09c.84-1.43.52-3.21-.79-4.25l-4.58-3.7.53-1.68c.84-2.66,1.32-5.42,1.43-8.17l.07-1.75,5.35-1.88c1.59-.56,2.5-2.21,2.12-3.85ZM203.3,49.77c-2.57,4.08-6.57,6.92-11.27,8-1.32.3-2.67.45-4.02.45-4.02,0-7.98-1.38-11.17-3.89-3.23-2.55-5.52-6.15-6.43-10.17-2.22-9.7,3.88-19.39,13.6-21.62,1.32-.3,2.68-.46,4.02-.46,4.02,0,7.98,1.38,11.17,3.89,3.23,2.54,5.51,6.15,6.43,10.16,1.08,4.7.25,9.53-2.32,13.62ZM183.99,114.38l-9.21-5.09.22-1.74c.55-4.32.54-8.63-.03-12.79l-.23-1.73,8.86-5c1.5-.85,2.12-2.67,1.46-4.24l-5.45-12.94c-.53-1.25-1.75-2.06-3.11-2.06-.32,0-.64.05-.95.14l-9.67,2.81-1.07-1.4c-2.52-3.28-5.52-6.28-8.9-8.92l-1.36-1.06,2.65-9.56c.46-1.64-.39-3.37-1.98-4.03l-12.97-5.28c-.4-.16-.83-.25-1.26-.25-1.23,0-2.37.67-2.96,1.76l-4.68,8.52-1.75-.23c-2.16-.29-4.36-.43-6.55-.43s-4.53.16-6.76.46l-1.73.23-4.86-8.59c-.6-1.06-1.73-1.72-2.94-1.72-.45,0-.89.09-1.3.26l-12.94,5.45c-1.57.66-2.4,2.41-1.92,4.05l2.75,9.48-1.38,1.07c-3.61,2.81-6.82,6.1-9.54,9.79l-1.05,1.43-9.67-2.69c-.29-.08-.6-.13-.9-.13-1.37,0-2.6.82-3.14,2.1l-5.29,12.99c-.64,1.58,0,3.4,1.51,4.23l9.15,5.03-.18,1.71c-.46,4.23-.36,8.48.29,12.65l.27,1.77-9.14,5.14c-1.5.85-2.12,2.67-1.46,4.24l5.45,12.94c.52,1.25,1.75,2.06,3.1,2.06.32,0,.64-.05.95-.14l10.46-3.05,1.08,1.33c2.48,3.05,5.3,5.81,8.38,8.18l1.37,1.06-2.96,10.61c-.46,1.64.39,3.37,1.97,4.03l13,5.29c.41.16.83.25,1.27.25,1.23,0,2.37-.68,2.96-1.76l5.28-9.6,1.73.21c2.03.25,4.11.38,6.16.38s4.03-.12,6.01-.36l1.71-.21,5.45,9.64c.6,1.06,1.73,1.72,2.95,1.72.45,0,.89-.09,1.3-.26l12.95-5.45c1.57-.66,2.4-2.4,1.92-4.05l-3.02-10.36,1.4-1.07c3.43-2.63,6.52-5.7,9.19-9.14l1.06-1.37,10.25,2.85c.29.08.6.12.9.12,1.37,0,2.6-.82,3.14-2.1l5.29-13c.64-1.58,0-3.4-1.52-4.23ZM135.02,125.02c-3.19,1.34-6.54,2.02-9.98,2.02-10.42,0-19.77-6.19-23.81-15.78-2.67-6.34-2.71-13.35-.11-19.74,2.6-6.39,7.53-11.38,13.86-14.05,3.19-1.34,6.55-2.02,9.98-2.02,10.42,0,19.77,6.19,23.81,15.78,5.52,13.11-.65,28.27-13.76,33.79ZM268.71,119.73l-7.35-3.25.07-1.76c.15-3.52-.15-6.99-.89-10.32l-.38-1.7,6.4-4.38c1.38-.94,1.84-2.77,1.07-4.26l-4.51-8.58c-.58-1.1-1.71-1.78-2.94-1.78-.4,0-.8.07-1.17.22l-7.16,2.75-1.19-1.3c-2.31-2.53-4.94-4.75-7.79-6.6l-1.45-.94,1.42-7.45c.33-1.65-.63-3.27-2.23-3.77l-9.26-2.89c-.32-.1-.65-.15-.98-.15-1.3,0-2.48.77-3,1.96l-3.01,6.75-1.77-.09c-.65-.03-1.32-.05-1.98-.05-2.92,0-5.86.33-8.76.98l-1.71.38-4.25-6.21c-.61-.9-1.64-1.44-2.74-1.44-.53,0-1.06.13-1.53.37l-8.58,4.5c-1.49.79-2.16,2.56-1.56,4.12l2.68,6.99-1.28,1.18c-.77.71-1.52,1.45-2.23,2.22l-.21.22-.02.3c-.23,2.83-1.84,5.36-4.32,6.76l-5.84,3.29.05.57c.28,3.12.29,6.31.02,9.51l-.05.57,6.17,3.41c3.8,2.09,5.44,6.68,3.81,10.69l-5.3,13c-1.18,2.86-3.82,4.87-6.88,5.24l-1.26.15,1.32,2.52c.58,1.1,1.71,1.78,2.94,1.78.4,0,.8-.07,1.17-.22l7.78-2.99,1.19,1.24c2.16,2.26,4.62,4.29,7.32,6.04l1.45.94-1.56,8.27c-.31,1.65.66,3.27,2.26,3.77l9.26,2.89c.32.1.65.15.98.15,1.3,0,2.48-.77,3-1.96l3.42-7.67,1.74.07c.53.02,1.07.03,1.59.03,2.8,0,5.56-.28,8.2-.85l1.69-.36,4.78,7.02c.62.9,1.64,1.45,2.74,1.45.53,0,1.05-.13,1.53-.37l8.58-4.51c1.49-.79,2.16-2.56,1.56-4.12l-2.95-7.71,1.3-1.19c2.59-2.36,4.88-5.05,6.79-8l.94-1.45,7.99,1.5c.2.04.41.06.61.06,1.45,0,2.72-.93,3.15-2.31l2.89-9.26c.5-1.6-.28-3.32-1.81-3.99ZM241.28,119.41c-1.72,5.51-5.48,10.02-10.57,12.68-3.09,1.62-6.55,2.48-9.99,2.48-2.18,0-4.35-.34-6.47-.99-5.51-1.72-10.02-5.48-12.68-10.58-2.68-5.1-3.21-10.94-1.49-16.45,1.72-5.51,5.48-10.02,10.57-12.68,3.09-1.62,6.55-2.48,9.99-2.48,2.18,0,4.35.34,6.46.99,5.51,1.72,10.02,5.48,12.68,10.58,2.68,5.1,3.21,10.94,1.49,16.46Z" style="fill: #a57f4d;"/>
  </g>
</svg>